<svg viewBox="0 0 800 600" xmlns="http://www.w3.org/2000/svg" font-family="Arial, sans-serif">
  <defs>
    <style>
      .bg { fill: #F8F9FA; }
      .header { fill: #FF6B35; }
      .card { fill: white; stroke: #2C3E50; stroke-width: 3; }
      .title { fill: #2C3E50; font-weight: 700; font-size: 24px; }
      .subtitle { fill: #6B7280; font-size: 14px; }
      .big-text { fill: #2C3E50; font-weight: 600; font-size: 18px; }
      .small-text { fill: #6B7280; font-size: 13px; }
      .icon { font-size: 32px; }
      .arrow { stroke: #10B981; stroke-width: 4; fill: none; marker-end: url(#arrow); }
      .badge { fill: #10B981; }
      .badge-text { fill: white; font-size: 18px; font-weight: 700; }
    </style>
    
    <marker id="arrow" markerWidth="10" markerHeight="10" refX="8" refY="3" orient="auto">
      <polygon points="0 0, 10 3, 0 6" fill="#10B981" />
    </marker>
  </defs>

  <!-- Background -->
  <rect width="800" height="600" class="bg"/>

  <!-- Header -->
  <rect width="800" height="80" class="header"/>
  <text x="400" y="35" text-anchor="middle" fill="white" font-size="28" font-weight="700">
    Zero-Cost AI-Native Stack
  </text>
  <text x="400" y="60" text-anchor="middle" fill="white" font-size="16">
    Production-Ready • $0/month • Open Source
  </text>

  <!-- Development Layer -->
  <rect x="50" y="120" width="330" height="140" rx="10" class="card"/>
  <text x="215" y="150" text-anchor="middle" class="icon">💻 🤖</text>
  <text x="215" y="185" text-anchor="middle" class="big-text">Claude + Cursor</text>
  <text x="215" y="210" text-anchor="middle" class="subtitle">AI-Assisted Development</text>
  <text x="215" y="235" text-anchor="middle" class="small-text">Write code 10x faster</text>
  
  <!-- Free badge -->
  <rect x="155" y="240" width="120" height="30" rx="15" class="badge"/>
  <text x="215" y="262" text-anchor="middle" class="badge-text">FREE TIER</text>

  <!-- Arrow 1 -->
  <path d="M 215 260 L 215 320" class="arrow"/>

  <!-- Data Layer -->
  <rect x="50" y="320" width="330" height="140" rx="10" class="card"/>
  <text x="215" y="350" text-anchor="middle" class="icon">🗄️</text>
  <text x="215" y="385" text-anchor="middle" class="big-text">Neon PostgreSQL</text>
  <text x="215" y="410" text-anchor="middle" class="subtitle">Serverless Database</text>
  <text x="215" y="435" text-anchor="middle" class="small-text">512MB • 100hrs/month</text>
  
  <!-- Free badge -->
  <rect x="155" y="440" width="120" height="30" rx="15" class="badge"/>
  <text x="215" y="462" text-anchor="middle" class="badge-text">FREE TIER</text>

  <!-- Arrow 2 -->
  <path d="M 380 390 L 420 390" class="arrow"/>

  <!-- Analytics Layer -->
  <rect x="420" y="320" width="330" height="140" rx="10" class="card"/>
  <text x="585" y="350" text-anchor="middle" class="icon">📊 ⚡</text>
  <text x="585" y="385" text-anchor="middle" class="big-text">Databricks + Delta Lake</text>
  <text x="585" y="410" text-anchor="middle" class="subtitle">Lakehouse Architecture</text>
  <text x="585" y="435" text-anchor="middle" class="small-text">15GB Cluster • Spark • DuckDB</text>
  
  <!-- Free badge -->
  <rect x="525" y="440" width="120" height="30" rx="15" class="badge"/>
  <text x="585" y="462" text-anchor="middle" class="badge-text">FREE TIER</text>

  <!-- Deployment Layer -->
  <rect x="420" y="120" width="330" height="140" rx="10" class="card"/>
  <text x="585" y="150" text-anchor="middle" class="icon">🚀</text>
  <text x="585" y="185" text-anchor="middle" class="big-text">Edge Deployment</text>
  <text x="585" y="210" text-anchor="middle" class="subtitle">Vercel / Cloudflare</text>
  <text x="585" y="235" text-anchor="middle" class="small-text">Serverless Functions • Global CDN</text>
  
  <!-- Free badge -->
  <rect x="525" y="240" width="120" height="30" rx="15" class="badge"/>
  <text x="585" y="262" text-anchor="middle" class="badge-text">FREE TIER</text>

  <!-- Arrow 3 -->
  <path d="M 585 260 L 585 320" class="arrow"/>

  <!-- Bottom Banner -->
  <rect x="50" y="510" width="700" height="60" rx="10" fill="#10B981"/>
  <text x="400" y="535" text-anchor="middle" fill="white" font-size="20" font-weight="700">
    🎉 Total Cost: $0/month until profitable
  </text>
  <text x="400" y="560" text-anchor="middle" fill="white" font-size="14">
    Scale from MVP to millions of users • No rewrite required
  </text>
</svg>